P2
24 20
15
15 15 15 15 15 15 15 15 15 15 15 15 15 15 15 15 15 15 15 15 15 15 15 15
15 15 15 15 15 15 15 15 15 15 15 15 15 15 15 15 15 15 15 15 15 15 15 15
15 15 15 15 15 15 15 15 15 15 15 15 15 15 15 15 15 15 15 15 15 15 15 15
15 15 15 11 11 11 11 11 11 11 11 11 11 11 11 11 11 11 11 11 11 15 15 15
15 15 15 11 11 11 11 11 11 11 11 11 11 11 11 11 11 11 11 11 11 15 15 15
15 15 15 11 11 11 11 11 11 11 11 11 11 11 11 11 11 11 11 11 11 15 15 15
15 15 15 11 11 11  1  1  1  1  1  1  1  1  1  1  1  1 11 11 11 15 15 15
15 15 15 11 11 11  1  1  1  1  1  1  1  1  1  1  1  1 11 11 11 15 15 15
15 15 15 11 11 11  1  1  1  1  1  1  1  1  1  1  1  1 11 11 11 15 15 15
15 15 15 11 11 11  1  1  1  1  1  1  1  1  1  1  1  1 11 11 11 15 15 15
15 15 15 11 11 11  1  1  1  1  1  1  1  1  1  1  1  1 11 11 11 15 15 15
15 15 15 11 11 11  1  1  1  1  1  1  1  1  1  1  1  1 11 11 11 15 15 15
15 15 15 11 11 11  1  1  1  1  1  1  1  1  1  1  1  1 11 11 11 15 15 15
15 15 15 11 11 11 11 11 11 11 11 11 11 11 11 11 11 11 11 11 11 15 15 15
15 15 15 11 11 11 11 11 11 11 11 11 11 11 11 11 11 11 11 11 11 15 15 15
15 15 15 11 11 11 11 11 11 11 11 11 11 11 11 11 11 11 11 11 11 15 15 15
15 15 15 15 15 15 15 15 15 15 15 15 15 15 15 15 15 15 15 15 15 15 15 15
15 15 15 15 15 15 15 15 15 15 15 15 15 15 15 15 15 15 15 15 15 15 15 15
15 15 15 15 15 15 15 15 15 15 15 15 15 15 15 15 15 15 15 15 15 15 15 15
15 15 15 15 15 15 15 15 15 15 15 15 15 15 15 15 15 15 15 15 15 15 15 15
