P2
5 6
15
0 0 0 0 0 
0 9 9 9 0 
0 9 9 9 0 
0 0 0 9 0 
0 0 0 9 0 
0 0 0 0 0 
