P2
24 20
15
15 15 15 15 15 15 15 15 15 15 15 15 15 15 15 15 15 15 15 15 15 15 15 15 
15 15 15 15 15 15 15 15 15 15 15 15 15 15 15 15 15 15 15 15 15 15 15 15 
15 15 15 15 15 15 15 15 15 15 15 15 15 15 15 15 15 15 15 15 15 15 15 15 
15 15 15 15 15 15 15 15 15 15 15 15 15 15 0 15 15 15 15 15 15 15 15 15 
15 15 15 15 15 15 15 0 0 0 0 0 0 0 0 0 15 15 15 15 15 15 15 15 
15 15 15 15 15 15 0 0 0 0 0 0 0 0 0 0 0 15 15 15 15 15 15 15 
15 15 15 15 15 15 0 0 0 15 15 15 15 15 0 0 0 0 0 15 15 15 15 15 
15 15 15 15 15 0 0 0 15 15 15 15 15 15 15 15 0 0 0 15 15 15 15 15 
15 15 15 15 15 0 0 15 15 15 15 15 15 15 15 15 15 0 0 15 15 15 15 15 
15 15 15 15 15 0 0 15 15 15 15 15 15 15 15 15 15 0 0 15 15 15 15 15 
15 15 15 15 15 0 0 15 15 15 15 15 15 15 15 15 15 0 0 15 15 15 15 15 
15 15 15 15 15 0 0 0 15 15 15 15 15 15 15 15 0 0 0 15 15 15 15 15 
15 15 15 15 15 15 0 0 0 0 15 15 15 15 0 0 0 0 0 15 15 15 15 15 
15 15 15 15 15 15 0 0 0 0 0 0 0 0 0 0 0 15 15 15 15 15 15 15 
15 15 15 15 15 15 15 15 0 0 0 0 0 0 0 0 15 15 15 15 15 15 15 15 
15 15 15 15 15 15 15 15 15 0 15 15 15 15 0 15 15 15 15 15 15 15 15 15 
15 15 15 15 15 15 15 15 15 15 15 15 15 15 15 15 15 15 15 15 15 15 15 15 
15 15 15 15 15 15 15 15 15 15 15 15 15 15 15 15 15 15 15 15 15 15 15 15 
15 15 15 15 15 15 15 15 15 15 15 15 15 15 15 15 15 15 15 15 15 15 15 15 
15 15 15 15 15 15 15 15 15 15 15 15 15 15 15 15 15 15 15 15 15 15 15 15 
