P2
5 6
15
15 15 15 15 15 
15 0 0 0 15 
15 0 0 0 15 
15 15 15 0 15 
15 15 15 0 15 
15 15 15 15 15 
