P2
24 20
15
0  0  0  0  0  0  0  0  0  0  0  0  0  0  0  0  0  0  0  0  0  0  0  0
0  0  0  0  0  0  0  0  0  0  0  0  0  0  0  0  0  0  0  0  0  0  0  0
0  0  0  0  0  0  0  0  0  0  0  0  0  0  0  0  0  0  0  0  0  0  0  0
0  0  0 2 2 2 2 2 2 2 2 2 2 2 2 2 2 2 2 2 2  0  0  0
0  0  0 2 2 2 2 2 2 2 2 2 2 2 2 2 2 2 2 2 2  0  0  0
0  0  0 2 2 2 2 2 2 15 15 15 15 15 2 2 2 2 2 2 2  0  0  0
0  0  0 2 2 2 2 2 15 15 15 15 15 15 15 15 2 2 2 2 2  0  0  0
0  0  0 2 2 2 2 15 15 15 15 15 15 15 15 15 15 2 2 2 2  0  0  0
0  0  0 2 2 2 15 15 15 15 15 15 15 15 15 15 15 15 2 2 2  0  0  0
0  0  0 2 2 2 15 15 15 15 15 15 15 15 15 15 15 15 2 2 2  0  0  0
0  0  0 2 2 2 15 15 15 15 15 15 15 15 15 15 15 15 2 2 2  0  0  0
0  0  0 2 2 2 2 15 15 15 15 15 15 15 15 15 15 2 2 2 2  0  0  0
0  0  0 2 2 2 2 2 15 15 15 15 15 15 15 15 2 2 2 2 2  0  0  0
0  0  0 2 2 2 2 2 2 2 15 15 15 15 2 2 2 2 2 2 2  0  0  0
0  0  0 2 2 2 2 2 2 2 2 2 2 2 2 2 2 2 2 2 2  0  0  0
0  0  0 2 2 2 2 2 2 2 2 2 2 2 2 2 2 2 2 2 2  0  0  0
0  0  0  0  0  0  0  0  0  0  0  0  0  0  0  0  0  0  0  0  0  0  0  0
0  0  0  0  0  0  0  0  0  0  0  0  0  0  0  0  0  0  0  0  0  0  0  0
0  0  0  0  0  0  0  0  0  0  0  0  0  0  0  0  0  0  0  0  0  0  0  0
0  0  0  0  0  0  0  0  0  0  0  0  0  0  0  0  0  0  0  0  0  0  0  0
